<svg width="12.000000" height="12.000000" viewBox="0 0 12 12" fill="none" xmlns="http://www.w3.org/2000/svg" xmlns:xlink="http://www.w3.org/1999/xlink">
	<desc>
			Created with Pixso.
	</desc>
	<defs/>
	<path id="↳ Icon Color" d="M1.53 0.26C1.18 -0.09 0.61 -0.09 0.26 0.26C-0.09 0.61 -0.09 1.18 0.26 1.53L4.72 6L0.26 10.46C-0.09 10.81 -0.09 11.38 0.26 11.73C0.61 12.08 1.18 12.08 1.53 11.73L6 7.27L10.46 11.73C10.81 12.08 11.38 12.08 11.73 11.73C12.08 11.38 12.08 10.81 11.73 10.46L7.27 6L11.73 1.53C12.08 1.18 12.08 0.61 11.73 0.26C11.38 -0.09 10.81 -0.09 10.46 0.26L6 4.72L1.53 0.26Z" fill="#FFFFFF" fill-opacity="1.000000" fill-rule="evenodd"/>
</svg>
