<svg width="13.000000" height="13.000000" viewBox="0 0 13 13" fill="none" xmlns="http://www.w3.org/2000/svg" xmlns:xlink="http://www.w3.org/1999/xlink">
	<desc>
			Created with Pixso.
	</desc>
	<defs/>
	<path id="↳ Icon Color" d="M12.12 2.06C12.12 2.54 11.73 2.93 11.25 2.93L0.75 2.93C0.26 2.93 -0.13 2.54 -0.13 2.06C-0.13 1.57 0.26 1.18 0.75 1.18L3.68 1.18C3.97 0.17 4.89 -0.57 6 -0.57C7.1 -0.57 8.02 0.17 8.31 1.18L11.25 1.18C11.73 1.18 12.12 1.57 12.12 2.06ZM1.98 11.5C1.73 11.08 1.67 10.53 1.55 9.42L1.09 5.02C1.06 4.75 1.05 4.62 1.09 4.51C1.13 4.42 1.2 4.35 1.28 4.3C1.38 4.25 1.52 4.25 1.79 4.25L10.21 4.25C10.47 4.25 10.61 4.25 10.71 4.3C10.79 4.35 10.86 4.42 10.9 4.51C10.94 4.62 10.93 4.75 10.9 5.02L10.44 9.42C10.32 10.53 10.26 11.08 10.01 11.5C9.79 11.87 9.46 12.17 9.07 12.35C8.63 12.56 8.07 12.56 6.96 12.56L5.03 12.56C3.92 12.56 3.36 12.56 2.92 12.35C2.53 12.17 2.2 11.87 1.98 11.5Z" fill="#FFFFFF" fill-opacity="1.000000" fill-rule="evenodd"/>
</svg>
