<svg width="11.000000" height="11.000000" viewBox="0 0 11 11" fill="none" xmlns="http://www.w3.org/2000/svg" xmlns:xlink="http://www.w3.org/1999/xlink">
	<desc>
			Created with Pixso.
	</desc>
	<defs/>
	<path id="↳ Icon Color" d="M6.84 1.38L8.61 3.15L2.8 8.96C2.41 9.35 1.94 9.63 1.41 9.79L-0.04 10.24C-0.13 10.26 -0.22 10.21 -0.25 10.13C-0.26 10.09 -0.26 10.06 -0.25 10.03L0.2 8.58C0.36 8.05 0.64 7.58 1.03 7.19L6.84 1.38ZM9.32 -0.03L10.02 0.67C10.3 0.95 10.32 1.38 10.08 1.68L10.02 1.74L9.14 2.62L7.37 0.85L8.25 -0.03C8.55 -0.33 9.02 -0.33 9.32 -0.03Z" fill="#FFFFFF" fill-opacity="1.000000" fill-rule="evenodd"/>
</svg>
