<svg width="17.000000" height="18.000000" viewBox="0 0 17 18" fill="none" xmlns="http://www.w3.org/2000/svg" xmlns:xlink="http://www.w3.org/1999/xlink">
	<desc>
			Created with Pixso.
	</desc>
	<defs/>
	<path id="A" d="M16.66 7.36L8.28 7.36L8.28 10.84L13.1 10.84C12.65 13.04 10.77 14.31 8.28 14.31C5.33 14.31 2.96 11.94 2.96 9C2.96 6.05 5.33 3.68 8.28 3.68C9.54 3.68 10.69 4.13 11.59 4.86L14.21 2.25C12.61 0.85 10.57 0 8.28 0C3.29 0 -0.72 4 -0.72 9C-0.72 13.99 3.29 18 8.28 18C12.78 18 16.87 14.72 16.87 9C16.87 8.46 16.79 7.89 16.66 7.36Z" fill="#000000" fill-opacity="1.000000" fill-rule="nonzero"/>
</svg>
