<svg width="50.000000" height="50.000000" viewBox="0 0 50 50" fill="none" xmlns="http://www.w3.org/2000/svg" xmlns:xlink="http://www.w3.org/1999/xlink">
	<desc>
			Created with Pixso.
	</desc>
	<defs/>
	<circle id="타원 6" cx="25.000000" cy="25.000000" r="25.000000" fill="#9848FF" fill-opacity="1.000000"/>
	<path id="plus" d="M35.62 22.77L27.39 22.77L27.39 13.88C27.39 12.66 26.47 11.66 25.34 11.66C24.21 11.66 23.28 12.66 23.28 13.88L23.28 22.77L15.05 22.77C13.92 22.77 13 23.77 13 25C13 26.22 13.92 27.22 15.05 27.22L23.28 27.22L23.28 36.11C23.28 37.33 24.21 38.33 25.34 38.33C26.47 38.33 27.39 37.33 27.39 36.11L27.39 27.22L35.62 27.22C36.75 27.22 37.68 26.22 37.68 25C37.68 23.77 36.75 22.77 35.62 22.77Z" fill="#FFFFFF" fill-opacity="1.000000" fill-rule="evenodd"/>
</svg>
