<svg width="25.000000" height="27.000000" viewBox="0 0 25 27" fill="none" xmlns="http://www.w3.org/2000/svg" xmlns:xlink="http://www.w3.org/1999/xlink">
	<desc>
			Created with Pixso.
	</desc>
	<defs/>
	<path id="plus" d="M22.62 10.77L14.39 10.77L14.39 1.88C14.39 0.66 13.47 -0.34 12.34 -0.34C11.21 -0.34 10.28 0.66 10.28 1.88L10.28 10.77L2.05 10.77C0.92 10.77 0 11.77 0 13C0 14.22 0.92 15.22 2.05 15.22L10.28 15.22L10.28 24.11C10.28 25.33 11.21 26.33 12.34 26.33C13.47 26.33 14.39 25.33 14.39 24.11L14.39 15.22L22.62 15.22C23.75 15.22 24.68 14.22 24.68 13C24.68 11.77 23.75 10.77 22.62 10.77Z" fill="#FFFFFF" fill-opacity="1.000000" fill-rule="evenodd"/>
</svg>
