<svg width="24.000000" height="24.000000" viewBox="0 0 24 24" fill="none" xmlns="http://www.w3.org/2000/svg" xmlns:xlink="http://www.w3.org/1999/xlink">
	<desc>
			Created with Pixso.
	</desc>
	<defs/>
	<path id="↳ Icon Color" d="M15.64 3.31L19.68 7.35L6.4 20.64C5.52 21.52 4.43 22.17 3.23 22.54L-0.08 23.55C-0.29 23.61 -0.5 23.5 -0.56 23.3C-0.58 23.22 -0.58 23.15 -0.56 23.07L0.45 19.76C0.82 18.56 1.47 17.47 2.35 16.59L15.64 3.31ZM21.3 0.07L22.92 1.7C23.55 2.32 23.58 3.32 23.04 3.99L22.92 4.12L20.9 6.14L16.85 2.09L18.87 0.07C19.54 -0.59 20.63 -0.59 21.3 0.07Z" fill="#FFFFFF" fill-opacity="1.000000" fill-rule="evenodd"/>
</svg>
